; NON-PLATED HOLES START AT T1
; THROUGH (PLATED) HOLES START AT T100
M48
INCH
T100C0.038222
T101C0.029428
T102C0.036000
T103C0.048028
T104C0.027917
T105C0.042000
T106C0.038000
T107C0.035000
T108C0.045708
T109C0.040000
T110C0.015748
%
T100
X008877Y013124
X010492Y011642
X009425Y011642
X008359Y011642
X009988Y013124
T101
X009685Y022450
X011685Y022450
X013685Y022450
X016685Y022450
T102
X019685Y015443
X019685Y020443
X019685Y019443
X025685Y007443
X019685Y007443
X025685Y012443
X019685Y018443
X025685Y015443
X019685Y009443
X019685Y013443
X025685Y006443
X019685Y006443
X025685Y020443
X025685Y017443
X019685Y010443
X025685Y008443
X019685Y011443
X019685Y017443
X025685Y010443
X025685Y016443
X025685Y013443
X025685Y014443
X025685Y011443
X019685Y014443
X025685Y018443
X019685Y016443
X019685Y012443
X025685Y019443
X025685Y009443
X019685Y008443
T103
X035685Y024450
X035685Y026450
X035685Y025450
X035685Y028450
X025559Y025478
X025559Y026478
X025559Y027478
X035685Y027450
T104
X009685Y025450
X013685Y025450
X011685Y025450
X016685Y025450
T105
X013195Y014940
X013195Y011960
T106
X016685Y003450
X015685Y003450
X036685Y023450
X027685Y012450
X011685Y020450
X016685Y013450
X035685Y020450
X016685Y010450
X036685Y024450
X016685Y014450
X033685Y020450
X034685Y018450
X029685Y017450
X016685Y008450
X016685Y011450
X021685Y003450
X008685Y004450
X016685Y009450
X027685Y013450
X036685Y025450
X034685Y020450
X019685Y003450
X009685Y004450
X027685Y011450
X020685Y003450
X016685Y016450
X027685Y010450
X012685Y020450
X017685Y003450
X028685Y017450
X027685Y017450
X016685Y017450
X016685Y018450
X016685Y015450
X034685Y017450
X036685Y026450
X018685Y003450
X016685Y012450
T107
X030685Y018450
X026685Y014450
X013685Y009450
X032685Y019450
X032685Y013450
X030685Y014450
X030685Y020450
X032685Y017450
X026685Y020450
X014685Y009450
X032685Y018450
X026685Y018450
X009685Y008450
X032685Y014450
X018685Y025450
X008685Y008450
X018685Y021450
T108
X025559Y024478
X035685Y023450
T109
X007685Y017450
X011685Y017450
T110
X029027Y021425
T00
M30
