G04 MADE WITH FRITZING*
G04 WWW.FRITZING.ORG*
G04 DOUBLE SIDED*
G04 HOLES PLATED*
G04 CONTOUR ON CENTER OF CONTOUR VECTOR*
%ASAXBY*%
%FSLAX23Y23*%
%MOIN*%
%OFA0B0*%
%SFA1.0B1.0*%
%ADD10C,0.074370*%
%ADD11C,0.039370*%
%ADD12C,0.082000*%
%ADD13C,0.075000*%
%ADD14C,0.080000*%
%ADD15C,0.075806*%
%ADD16C,0.073486*%
%ADD17C,0.049312*%
%ADD18C,0.050823*%
%ADD19C,0.078000*%
%ADD20C,0.070000*%
%ADD21R,0.082000X0.082000*%
%ADD22R,0.075000X0.075000*%
%ADD23R,0.069972X0.070000*%
%ADD24C,0.024000*%
%ADD25R,0.001000X0.001000*%
%LNCOPPER1*%
G90*
G70*
G54D10*
X999Y1312D03*
X888Y1312D03*
X836Y1164D03*
X943Y1164D03*
X1049Y1164D03*
G54D11*
X2903Y2143D03*
G54D12*
X1320Y1494D03*
X1320Y1196D03*
G54D13*
X1469Y945D03*
X1369Y945D03*
X969Y845D03*
X869Y845D03*
G54D14*
X769Y1745D03*
X1169Y1745D03*
G54D15*
X3569Y2845D03*
X3569Y2745D03*
X3569Y2645D03*
X3569Y2545D03*
X3569Y2445D03*
G54D16*
X3569Y2345D03*
G54D15*
X2556Y2748D03*
X2556Y2648D03*
X2556Y2548D03*
G54D16*
X2556Y2448D03*
G54D17*
X1669Y2245D03*
G54D18*
X1669Y2545D03*
G54D17*
X1369Y2245D03*
G54D18*
X1369Y2545D03*
G54D17*
X1169Y2245D03*
X969Y2245D03*
G54D18*
X1169Y2545D03*
X969Y2545D03*
G54D19*
X1569Y345D03*
X1669Y345D03*
X1769Y345D03*
X1869Y345D03*
X1969Y345D03*
X2069Y345D03*
X2169Y345D03*
X2769Y1345D03*
X2769Y1245D03*
X2769Y1145D03*
X2769Y1045D03*
X3669Y2645D03*
X3669Y2545D03*
X3669Y2445D03*
X3669Y2345D03*
X1669Y1545D03*
X1669Y1445D03*
X1669Y1345D03*
X1669Y1245D03*
X1669Y1145D03*
X1669Y1045D03*
X1669Y945D03*
X1669Y845D03*
G54D13*
X2669Y2045D03*
X3069Y2045D03*
X1869Y2545D03*
X1869Y2145D03*
G54D19*
X1169Y2045D03*
X1269Y2045D03*
G54D13*
X3269Y1945D03*
X3269Y1845D03*
X3269Y1745D03*
X2669Y1845D03*
X3069Y1845D03*
G54D19*
X3469Y1845D03*
X3469Y1745D03*
X2969Y1745D03*
X2869Y1745D03*
X2769Y1745D03*
G54D20*
X2569Y644D03*
X2569Y744D03*
X2569Y844D03*
X2569Y944D03*
X2569Y1044D03*
X2569Y1144D03*
X2569Y1244D03*
X2569Y1344D03*
X2569Y1444D03*
X2569Y1544D03*
X2569Y1644D03*
X2569Y1744D03*
X2569Y1844D03*
X2569Y1944D03*
X2569Y2044D03*
X1969Y644D03*
X1969Y744D03*
X1969Y844D03*
X1969Y944D03*
X1969Y1044D03*
X1969Y1144D03*
X1969Y1244D03*
X1969Y1344D03*
X1969Y1444D03*
X1969Y1544D03*
X1969Y1644D03*
X1969Y1744D03*
X1969Y1844D03*
X1969Y1944D03*
X1969Y2044D03*
G54D13*
X2669Y1445D03*
X3069Y1445D03*
X3269Y1345D03*
X3269Y1445D03*
G54D19*
X3369Y2045D03*
X3469Y2045D03*
X3569Y2045D03*
X869Y445D03*
X969Y445D03*
X1669Y1845D03*
X1669Y1745D03*
X1669Y1645D03*
G54D21*
X1320Y1495D03*
G54D22*
X1469Y945D03*
X969Y845D03*
G54D23*
X2569Y644D03*
G54D22*
X3269Y1345D03*
G54D24*
X3638Y2445D02*
X3604Y2445D01*
D02*
X1939Y1444D02*
X1699Y1445D01*
D02*
X2598Y1144D02*
X2738Y1145D01*
D02*
X3602Y2345D02*
X3638Y2345D01*
D02*
X1699Y1645D02*
X1939Y1644D01*
D02*
X1939Y1244D02*
X1699Y1245D01*
D02*
X1939Y1744D02*
X1699Y1745D01*
D02*
X1939Y1344D02*
X1699Y1345D01*
D02*
X3638Y2545D02*
X3604Y2545D01*
D02*
X2640Y1445D02*
X2598Y1445D01*
D02*
X2598Y1744D02*
X2738Y1745D01*
D02*
X2738Y1045D02*
X2598Y1044D01*
D02*
X3638Y2645D02*
X3604Y2645D01*
D02*
X3438Y1745D02*
X3297Y1745D01*
D02*
X1948Y2065D02*
X1889Y2125D01*
D02*
X1692Y2233D02*
X1843Y2158D01*
D02*
X3442Y1859D02*
X3294Y1932D01*
D02*
X1147Y2066D02*
X987Y2227D01*
D02*
X1697Y955D02*
X1941Y1035D01*
D02*
X2640Y2045D02*
X2598Y2045D01*
D02*
X866Y874D02*
X839Y1134D01*
D02*
X1697Y1055D02*
X1941Y1135D01*
D02*
X2495Y1711D02*
X2547Y1664D01*
D02*
X2495Y2599D02*
X2495Y1711D01*
D02*
X2529Y2626D02*
X2495Y2599D01*
D02*
X3097Y1445D02*
X3240Y1445D01*
D02*
X3480Y2017D02*
X3527Y1903D01*
D02*
X1013Y1286D02*
X1031Y1255D01*
D02*
X3527Y1663D02*
X3290Y1463D01*
D02*
X3527Y1903D02*
X3527Y1663D01*
D02*
X1103Y1255D02*
X1350Y967D01*
D02*
X1031Y1255D02*
X1103Y1255D01*
D02*
X786Y1720D02*
X1031Y1375D01*
D02*
X1031Y1375D02*
X1013Y1339D01*
D02*
X2615Y2719D02*
X2958Y1773D01*
D02*
X2587Y2732D02*
X2615Y2719D01*
D02*
X2038Y345D02*
X1999Y345D01*
D02*
X2138Y345D02*
X2099Y345D01*
D02*
X1607Y775D02*
X1943Y775D01*
D02*
X1607Y1111D02*
X1607Y775D01*
D02*
X1642Y1130D02*
X1607Y1111D01*
D02*
X1943Y775D02*
X1950Y767D01*
D02*
X1487Y967D02*
X1607Y1111D01*
D02*
X1336Y1168D02*
X1454Y970D01*
D02*
X1607Y1183D02*
X1643Y1161D01*
D02*
X1607Y1495D02*
X1607Y1183D01*
D02*
X1645Y1526D02*
X1607Y1495D01*
D02*
X3044Y2060D02*
X2919Y2133D01*
D02*
X3311Y2119D02*
X3096Y2053D01*
D02*
X3527Y2119D02*
X3311Y2119D01*
D02*
X3554Y2071D02*
X3527Y2119D01*
D02*
X2999Y1375D02*
X2879Y1717D01*
D02*
X3240Y1348D02*
X2999Y1375D01*
D02*
X1867Y545D02*
X1955Y372D01*
D02*
X1895Y703D02*
X1867Y545D01*
D02*
X1943Y730D02*
X1895Y703D01*
G54D25*
X3564Y2876D02*
X3572Y2876D01*
X3559Y2875D02*
X3576Y2875D01*
X3556Y2874D02*
X3579Y2874D01*
X3554Y2873D02*
X3581Y2873D01*
X3552Y2872D02*
X3583Y2872D01*
X3551Y2871D02*
X3585Y2871D01*
X3550Y2870D02*
X3586Y2870D01*
X3548Y2869D02*
X3587Y2869D01*
X3547Y2868D02*
X3588Y2868D01*
X3546Y2867D02*
X3590Y2867D01*
X3545Y2866D02*
X3590Y2866D01*
X3544Y2865D02*
X3591Y2865D01*
X3544Y2864D02*
X3592Y2864D01*
X3543Y2863D02*
X3562Y2863D01*
X3574Y2863D02*
X3593Y2863D01*
X3542Y2862D02*
X3559Y2862D01*
X3576Y2862D02*
X3593Y2862D01*
X3542Y2861D02*
X3557Y2861D01*
X3578Y2861D02*
X3594Y2861D01*
X3541Y2860D02*
X3556Y2860D01*
X3580Y2860D02*
X3595Y2860D01*
X3541Y2859D02*
X3555Y2859D01*
X3581Y2859D02*
X3595Y2859D01*
X3540Y2858D02*
X3554Y2858D01*
X3582Y2858D02*
X3596Y2858D01*
X3540Y2857D02*
X3553Y2857D01*
X3583Y2857D02*
X3596Y2857D01*
X3539Y2856D02*
X3552Y2856D01*
X3583Y2856D02*
X3596Y2856D01*
X3539Y2855D02*
X3552Y2855D01*
X3584Y2855D02*
X3597Y2855D01*
X3539Y2854D02*
X3551Y2854D01*
X3585Y2854D02*
X3597Y2854D01*
X3538Y2853D02*
X3550Y2853D01*
X3585Y2853D02*
X3597Y2853D01*
X3538Y2852D02*
X3550Y2852D01*
X3586Y2852D02*
X3598Y2852D01*
X3538Y2851D02*
X3550Y2851D01*
X3586Y2851D02*
X3598Y2851D01*
X3538Y2850D02*
X3549Y2850D01*
X3586Y2850D02*
X3598Y2850D01*
X3538Y2849D02*
X3549Y2849D01*
X3586Y2849D02*
X3598Y2849D01*
X3537Y2848D02*
X3549Y2848D01*
X3587Y2848D02*
X3598Y2848D01*
X3537Y2847D02*
X3549Y2847D01*
X3587Y2847D02*
X3598Y2847D01*
X3537Y2846D02*
X3549Y2846D01*
X3587Y2846D02*
X3598Y2846D01*
X3537Y2845D02*
X3549Y2845D01*
X3587Y2845D02*
X3598Y2845D01*
X3537Y2844D02*
X3549Y2844D01*
X3587Y2844D02*
X3598Y2844D01*
X3537Y2843D02*
X3549Y2843D01*
X3587Y2843D02*
X3598Y2843D01*
X3538Y2842D02*
X3549Y2842D01*
X3586Y2842D02*
X3598Y2842D01*
X3538Y2841D02*
X3549Y2841D01*
X3586Y2841D02*
X3598Y2841D01*
X3538Y2840D02*
X3550Y2840D01*
X3586Y2840D02*
X3598Y2840D01*
X3538Y2839D02*
X3550Y2839D01*
X3586Y2839D02*
X3598Y2839D01*
X3538Y2838D02*
X3550Y2838D01*
X3585Y2838D02*
X3597Y2838D01*
X3539Y2837D02*
X3551Y2837D01*
X3585Y2837D02*
X3597Y2837D01*
X3539Y2836D02*
X3551Y2836D01*
X3584Y2836D02*
X3597Y2836D01*
X3539Y2835D02*
X3552Y2835D01*
X3584Y2835D02*
X3596Y2835D01*
X3540Y2834D02*
X3553Y2834D01*
X3583Y2834D02*
X3596Y2834D01*
X3540Y2833D02*
X3554Y2833D01*
X3582Y2833D02*
X3596Y2833D01*
X3540Y2832D02*
X3555Y2832D01*
X3581Y2832D02*
X3595Y2832D01*
X3541Y2831D02*
X3556Y2831D01*
X3580Y2831D02*
X3595Y2831D01*
X3542Y2830D02*
X3557Y2830D01*
X3578Y2830D02*
X3594Y2830D01*
X3542Y2829D02*
X3559Y2829D01*
X3577Y2829D02*
X3594Y2829D01*
X3543Y2828D02*
X3561Y2828D01*
X3574Y2828D02*
X3593Y2828D01*
X3543Y2827D02*
X3566Y2827D01*
X3569Y2827D02*
X3592Y2827D01*
X3544Y2826D02*
X3591Y2826D01*
X3545Y2825D02*
X3591Y2825D01*
X3546Y2824D02*
X3590Y2824D01*
X3547Y2823D02*
X3589Y2823D01*
X3548Y2822D02*
X3588Y2822D01*
X3549Y2821D02*
X3586Y2821D01*
X3551Y2820D02*
X3585Y2820D01*
X3552Y2819D02*
X3583Y2819D01*
X3554Y2818D02*
X3582Y2818D01*
X3556Y2817D02*
X3580Y2817D01*
X3559Y2816D02*
X3577Y2816D01*
X3563Y2815D02*
X3573Y2815D01*
X2552Y2779D02*
X2558Y2779D01*
X2547Y2778D02*
X2563Y2778D01*
X2544Y2777D02*
X2566Y2777D01*
X2542Y2776D02*
X2569Y2776D01*
X3564Y2776D02*
X3572Y2776D01*
X2540Y2775D02*
X2570Y2775D01*
X3559Y2775D02*
X3577Y2775D01*
X2539Y2774D02*
X2572Y2774D01*
X3556Y2774D02*
X3579Y2774D01*
X2537Y2773D02*
X2573Y2773D01*
X3554Y2773D02*
X3581Y2773D01*
X2536Y2772D02*
X2575Y2772D01*
X3552Y2772D02*
X3583Y2772D01*
X2535Y2771D02*
X2576Y2771D01*
X3551Y2771D02*
X3585Y2771D01*
X2534Y2770D02*
X2577Y2770D01*
X3550Y2770D02*
X3586Y2770D01*
X2533Y2769D02*
X2578Y2769D01*
X3548Y2769D02*
X3587Y2769D01*
X2532Y2768D02*
X2579Y2768D01*
X3547Y2768D02*
X3588Y2768D01*
X2531Y2767D02*
X2579Y2767D01*
X3546Y2767D02*
X3590Y2767D01*
X2531Y2766D02*
X2550Y2766D01*
X2561Y2766D02*
X2580Y2766D01*
X3545Y2766D02*
X3590Y2766D01*
X2530Y2765D02*
X2547Y2765D01*
X2564Y2765D02*
X2581Y2765D01*
X3544Y2765D02*
X3591Y2765D01*
X2529Y2764D02*
X2545Y2764D01*
X2565Y2764D02*
X2581Y2764D01*
X3544Y2764D02*
X3592Y2764D01*
X2529Y2763D02*
X2544Y2763D01*
X2567Y2763D02*
X2582Y2763D01*
X3543Y2763D02*
X3562Y2763D01*
X3574Y2763D02*
X3593Y2763D01*
X2528Y2762D02*
X2543Y2762D01*
X2568Y2762D02*
X2583Y2762D01*
X3542Y2762D02*
X3559Y2762D01*
X3576Y2762D02*
X3593Y2762D01*
X2528Y2761D02*
X2542Y2761D01*
X2569Y2761D02*
X2583Y2761D01*
X3542Y2761D02*
X3557Y2761D01*
X3578Y2761D02*
X3594Y2761D01*
X2527Y2760D02*
X2541Y2760D01*
X2570Y2760D02*
X2583Y2760D01*
X3541Y2760D02*
X3556Y2760D01*
X3580Y2760D02*
X3595Y2760D01*
X2527Y2759D02*
X2540Y2759D01*
X2571Y2759D02*
X2584Y2759D01*
X3541Y2759D02*
X3555Y2759D01*
X3581Y2759D02*
X3595Y2759D01*
X2527Y2758D02*
X2539Y2758D01*
X2572Y2758D02*
X2584Y2758D01*
X3540Y2758D02*
X3554Y2758D01*
X3582Y2758D02*
X3596Y2758D01*
X2526Y2757D02*
X2539Y2757D01*
X2572Y2757D02*
X2585Y2757D01*
X3540Y2757D02*
X3553Y2757D01*
X3583Y2757D02*
X3596Y2757D01*
X2526Y2756D02*
X2538Y2756D01*
X2573Y2756D02*
X2585Y2756D01*
X3539Y2756D02*
X3552Y2756D01*
X3583Y2756D02*
X3596Y2756D01*
X2526Y2755D02*
X2538Y2755D01*
X2573Y2755D02*
X2585Y2755D01*
X3539Y2755D02*
X3552Y2755D01*
X3584Y2755D02*
X3597Y2755D01*
X2525Y2754D02*
X2537Y2754D01*
X2573Y2754D02*
X2585Y2754D01*
X3539Y2754D02*
X3551Y2754D01*
X3585Y2754D02*
X3597Y2754D01*
X2525Y2753D02*
X2537Y2753D01*
X2574Y2753D02*
X2585Y2753D01*
X3538Y2753D02*
X3550Y2753D01*
X3585Y2753D02*
X3597Y2753D01*
X2525Y2752D02*
X2537Y2752D01*
X2574Y2752D02*
X2586Y2752D01*
X3538Y2752D02*
X3550Y2752D01*
X3586Y2752D02*
X3598Y2752D01*
X2525Y2751D02*
X2537Y2751D01*
X2574Y2751D02*
X2586Y2751D01*
X3538Y2751D02*
X3550Y2751D01*
X3586Y2751D02*
X3598Y2751D01*
X2525Y2750D02*
X2537Y2750D01*
X2574Y2750D02*
X2586Y2750D01*
X3538Y2750D02*
X3549Y2750D01*
X3586Y2750D02*
X3598Y2750D01*
X2525Y2749D02*
X2536Y2749D01*
X2574Y2749D02*
X2586Y2749D01*
X3538Y2749D02*
X3549Y2749D01*
X3586Y2749D02*
X3598Y2749D01*
X2525Y2748D02*
X2536Y2748D01*
X2574Y2748D02*
X2586Y2748D01*
X3537Y2748D02*
X3549Y2748D01*
X3587Y2748D02*
X3598Y2748D01*
X2525Y2747D02*
X2536Y2747D01*
X2574Y2747D02*
X2586Y2747D01*
X3537Y2747D02*
X3549Y2747D01*
X3587Y2747D02*
X3598Y2747D01*
X2525Y2746D02*
X2537Y2746D01*
X2574Y2746D02*
X2586Y2746D01*
X3537Y2746D02*
X3549Y2746D01*
X3587Y2746D02*
X3598Y2746D01*
X2525Y2745D02*
X2537Y2745D01*
X2574Y2745D02*
X2586Y2745D01*
X3537Y2745D02*
X3549Y2745D01*
X3587Y2745D02*
X3598Y2745D01*
X2525Y2744D02*
X2537Y2744D01*
X2574Y2744D02*
X2585Y2744D01*
X3537Y2744D02*
X3549Y2744D01*
X3587Y2744D02*
X3598Y2744D01*
X2525Y2743D02*
X2537Y2743D01*
X2574Y2743D02*
X2585Y2743D01*
X3537Y2743D02*
X3549Y2743D01*
X3587Y2743D02*
X3598Y2743D01*
X2526Y2742D02*
X2537Y2742D01*
X2573Y2742D02*
X2585Y2742D01*
X3538Y2742D02*
X3549Y2742D01*
X3586Y2742D02*
X3598Y2742D01*
X2526Y2741D02*
X2538Y2741D01*
X2573Y2741D02*
X2585Y2741D01*
X3538Y2741D02*
X3549Y2741D01*
X3586Y2741D02*
X3598Y2741D01*
X2526Y2740D02*
X2538Y2740D01*
X2572Y2740D02*
X2585Y2740D01*
X3538Y2740D02*
X3550Y2740D01*
X3586Y2740D02*
X3598Y2740D01*
X2526Y2739D02*
X2539Y2739D01*
X2572Y2739D02*
X2584Y2739D01*
X3538Y2739D02*
X3550Y2739D01*
X3586Y2739D02*
X3598Y2739D01*
X2527Y2738D02*
X2539Y2738D01*
X2571Y2738D02*
X2584Y2738D01*
X3538Y2738D02*
X3550Y2738D01*
X3585Y2738D02*
X3597Y2738D01*
X2527Y2737D02*
X2540Y2737D01*
X2570Y2737D02*
X2584Y2737D01*
X3539Y2737D02*
X3551Y2737D01*
X3585Y2737D02*
X3597Y2737D01*
X2527Y2736D02*
X2541Y2736D01*
X2570Y2736D02*
X2583Y2736D01*
X3539Y2736D02*
X3551Y2736D01*
X3584Y2736D02*
X3597Y2736D01*
X2528Y2735D02*
X2542Y2735D01*
X2569Y2735D02*
X2583Y2735D01*
X3539Y2735D02*
X3552Y2735D01*
X3584Y2735D02*
X3596Y2735D01*
X2528Y2734D02*
X2543Y2734D01*
X2568Y2734D02*
X2582Y2734D01*
X3540Y2734D02*
X3553Y2734D01*
X3583Y2734D02*
X3596Y2734D01*
X2529Y2733D02*
X2544Y2733D01*
X2566Y2733D02*
X2582Y2733D01*
X3540Y2733D02*
X3554Y2733D01*
X3582Y2733D02*
X3596Y2733D01*
X2530Y2732D02*
X2546Y2732D01*
X2565Y2732D02*
X2581Y2732D01*
X3540Y2732D02*
X3555Y2732D01*
X3581Y2732D02*
X3595Y2732D01*
X2530Y2731D02*
X2548Y2731D01*
X2562Y2731D02*
X2581Y2731D01*
X3541Y2731D02*
X3556Y2731D01*
X3580Y2731D02*
X3595Y2731D01*
X2531Y2730D02*
X2552Y2730D01*
X2559Y2730D02*
X2580Y2730D01*
X3542Y2730D02*
X3557Y2730D01*
X3578Y2730D02*
X3594Y2730D01*
X2532Y2729D02*
X2579Y2729D01*
X3542Y2729D02*
X3559Y2729D01*
X3577Y2729D02*
X3594Y2729D01*
X2532Y2728D02*
X2578Y2728D01*
X3543Y2728D02*
X3561Y2728D01*
X3574Y2728D02*
X3593Y2728D01*
X2533Y2727D02*
X2577Y2727D01*
X3544Y2727D02*
X3567Y2727D01*
X3569Y2727D02*
X3592Y2727D01*
X2534Y2726D02*
X2576Y2726D01*
X3544Y2726D02*
X3591Y2726D01*
X2535Y2725D02*
X2575Y2725D01*
X3545Y2725D02*
X3591Y2725D01*
X2537Y2724D02*
X2574Y2724D01*
X3546Y2724D02*
X3590Y2724D01*
X2538Y2723D02*
X2573Y2723D01*
X3547Y2723D02*
X3589Y2723D01*
X2539Y2722D02*
X2571Y2722D01*
X3548Y2722D02*
X3587Y2722D01*
X2541Y2721D02*
X2570Y2721D01*
X3549Y2721D02*
X3586Y2721D01*
X2543Y2720D02*
X2568Y2720D01*
X3551Y2720D02*
X3585Y2720D01*
X2546Y2719D02*
X2565Y2719D01*
X3552Y2719D02*
X3583Y2719D01*
X2549Y2718D02*
X2561Y2718D01*
X3554Y2718D02*
X3582Y2718D01*
X3556Y2717D02*
X3580Y2717D01*
X3559Y2716D02*
X3577Y2716D01*
X3563Y2715D02*
X3573Y2715D01*
X2553Y2679D02*
X2558Y2679D01*
X2547Y2678D02*
X2563Y2678D01*
X2544Y2677D02*
X2566Y2677D01*
X2542Y2676D02*
X2568Y2676D01*
X3564Y2676D02*
X3572Y2676D01*
X2540Y2675D02*
X2570Y2675D01*
X3559Y2675D02*
X3577Y2675D01*
X2539Y2674D02*
X2572Y2674D01*
X3556Y2674D02*
X3579Y2674D01*
X2537Y2673D02*
X2573Y2673D01*
X3554Y2673D02*
X3581Y2673D01*
X2536Y2672D02*
X2575Y2672D01*
X3552Y2672D02*
X3583Y2672D01*
X2535Y2671D02*
X2576Y2671D01*
X3551Y2671D02*
X3585Y2671D01*
X2534Y2670D02*
X2577Y2670D01*
X3550Y2670D02*
X3586Y2670D01*
X2533Y2669D02*
X2578Y2669D01*
X3548Y2669D02*
X3587Y2669D01*
X2532Y2668D02*
X2579Y2668D01*
X3547Y2668D02*
X3588Y2668D01*
X2531Y2667D02*
X2579Y2667D01*
X3546Y2667D02*
X3590Y2667D01*
X2531Y2666D02*
X2550Y2666D01*
X2561Y2666D02*
X2580Y2666D01*
X3545Y2666D02*
X3590Y2666D01*
X2530Y2665D02*
X2547Y2665D01*
X2564Y2665D02*
X2581Y2665D01*
X3544Y2665D02*
X3591Y2665D01*
X2529Y2664D02*
X2545Y2664D01*
X2565Y2664D02*
X2581Y2664D01*
X3544Y2664D02*
X3592Y2664D01*
X2529Y2663D02*
X2544Y2663D01*
X2567Y2663D02*
X2582Y2663D01*
X3543Y2663D02*
X3562Y2663D01*
X3574Y2663D02*
X3593Y2663D01*
X2528Y2662D02*
X2543Y2662D01*
X2568Y2662D02*
X2583Y2662D01*
X3542Y2662D02*
X3559Y2662D01*
X3576Y2662D02*
X3593Y2662D01*
X2528Y2661D02*
X2542Y2661D01*
X2569Y2661D02*
X2583Y2661D01*
X3542Y2661D02*
X3557Y2661D01*
X3578Y2661D02*
X3594Y2661D01*
X2527Y2660D02*
X2541Y2660D01*
X2570Y2660D02*
X2583Y2660D01*
X3541Y2660D02*
X3556Y2660D01*
X3580Y2660D02*
X3595Y2660D01*
X2527Y2659D02*
X2540Y2659D01*
X2571Y2659D02*
X2584Y2659D01*
X3541Y2659D02*
X3555Y2659D01*
X3581Y2659D02*
X3595Y2659D01*
X2527Y2658D02*
X2539Y2658D01*
X2572Y2658D02*
X2584Y2658D01*
X3540Y2658D02*
X3554Y2658D01*
X3582Y2658D02*
X3596Y2658D01*
X2526Y2657D02*
X2539Y2657D01*
X2572Y2657D02*
X2585Y2657D01*
X3540Y2657D02*
X3553Y2657D01*
X3583Y2657D02*
X3596Y2657D01*
X2526Y2656D02*
X2538Y2656D01*
X2573Y2656D02*
X2585Y2656D01*
X3539Y2656D02*
X3552Y2656D01*
X3584Y2656D02*
X3596Y2656D01*
X2526Y2655D02*
X2538Y2655D01*
X2573Y2655D02*
X2585Y2655D01*
X3539Y2655D02*
X3552Y2655D01*
X3584Y2655D02*
X3597Y2655D01*
X2525Y2654D02*
X2537Y2654D01*
X2573Y2654D02*
X2585Y2654D01*
X3539Y2654D02*
X3551Y2654D01*
X3585Y2654D02*
X3597Y2654D01*
X2525Y2653D02*
X2537Y2653D01*
X2574Y2653D02*
X2585Y2653D01*
X3538Y2653D02*
X3550Y2653D01*
X3585Y2653D02*
X3597Y2653D01*
X2525Y2652D02*
X2537Y2652D01*
X2574Y2652D02*
X2586Y2652D01*
X3538Y2652D02*
X3550Y2652D01*
X3586Y2652D02*
X3598Y2652D01*
X2525Y2651D02*
X2537Y2651D01*
X2574Y2651D02*
X2586Y2651D01*
X3538Y2651D02*
X3550Y2651D01*
X3586Y2651D02*
X3598Y2651D01*
X2525Y2650D02*
X2537Y2650D01*
X2574Y2650D02*
X2586Y2650D01*
X3538Y2650D02*
X3549Y2650D01*
X3586Y2650D02*
X3598Y2650D01*
X2525Y2649D02*
X2536Y2649D01*
X2574Y2649D02*
X2586Y2649D01*
X3538Y2649D02*
X3549Y2649D01*
X3586Y2649D02*
X3598Y2649D01*
X2525Y2648D02*
X2536Y2648D01*
X2574Y2648D02*
X2586Y2648D01*
X3537Y2648D02*
X3549Y2648D01*
X3587Y2648D02*
X3598Y2648D01*
X2525Y2647D02*
X2536Y2647D01*
X2574Y2647D02*
X2586Y2647D01*
X3537Y2647D02*
X3549Y2647D01*
X3587Y2647D02*
X3598Y2647D01*
X2525Y2646D02*
X2537Y2646D01*
X2574Y2646D02*
X2586Y2646D01*
X3537Y2646D02*
X3549Y2646D01*
X3587Y2646D02*
X3598Y2646D01*
X2525Y2645D02*
X2537Y2645D01*
X2574Y2645D02*
X2586Y2645D01*
X3537Y2645D02*
X3549Y2645D01*
X3587Y2645D02*
X3598Y2645D01*
X2525Y2644D02*
X2537Y2644D01*
X2574Y2644D02*
X2585Y2644D01*
X3537Y2644D02*
X3549Y2644D01*
X3587Y2644D02*
X3598Y2644D01*
X2525Y2643D02*
X2537Y2643D01*
X2574Y2643D02*
X2585Y2643D01*
X3537Y2643D02*
X3549Y2643D01*
X3587Y2643D02*
X3598Y2643D01*
X2526Y2642D02*
X2537Y2642D01*
X2573Y2642D02*
X2585Y2642D01*
X3538Y2642D02*
X3549Y2642D01*
X3586Y2642D02*
X3598Y2642D01*
X2526Y2641D02*
X2538Y2641D01*
X2573Y2641D02*
X2585Y2641D01*
X3538Y2641D02*
X3549Y2641D01*
X3586Y2641D02*
X3598Y2641D01*
X2526Y2640D02*
X2538Y2640D01*
X2572Y2640D02*
X2585Y2640D01*
X3538Y2640D02*
X3550Y2640D01*
X3586Y2640D02*
X3598Y2640D01*
X2526Y2639D02*
X2539Y2639D01*
X2572Y2639D02*
X2584Y2639D01*
X3538Y2639D02*
X3550Y2639D01*
X3586Y2639D02*
X3598Y2639D01*
X2527Y2638D02*
X2539Y2638D01*
X2571Y2638D02*
X2584Y2638D01*
X3538Y2638D02*
X3550Y2638D01*
X3585Y2638D02*
X3597Y2638D01*
X2527Y2637D02*
X2540Y2637D01*
X2570Y2637D02*
X2584Y2637D01*
X3539Y2637D02*
X3551Y2637D01*
X3585Y2637D02*
X3597Y2637D01*
X2527Y2636D02*
X2541Y2636D01*
X2570Y2636D02*
X2583Y2636D01*
X3539Y2636D02*
X3551Y2636D01*
X3584Y2636D02*
X3597Y2636D01*
X2528Y2635D02*
X2542Y2635D01*
X2569Y2635D02*
X2583Y2635D01*
X3539Y2635D02*
X3552Y2635D01*
X3584Y2635D02*
X3596Y2635D01*
X2528Y2634D02*
X2543Y2634D01*
X2568Y2634D02*
X2582Y2634D01*
X3540Y2634D02*
X3553Y2634D01*
X3583Y2634D02*
X3596Y2634D01*
X2529Y2633D02*
X2544Y2633D01*
X2566Y2633D02*
X2582Y2633D01*
X3540Y2633D02*
X3554Y2633D01*
X3582Y2633D02*
X3596Y2633D01*
X2530Y2632D02*
X2546Y2632D01*
X2565Y2632D02*
X2581Y2632D01*
X3540Y2632D02*
X3555Y2632D01*
X3581Y2632D02*
X3595Y2632D01*
X2530Y2631D02*
X2548Y2631D01*
X2563Y2631D02*
X2581Y2631D01*
X3541Y2631D02*
X3556Y2631D01*
X3580Y2631D02*
X3595Y2631D01*
X2531Y2630D02*
X2552Y2630D01*
X2559Y2630D02*
X2580Y2630D01*
X3542Y2630D02*
X3557Y2630D01*
X3578Y2630D02*
X3594Y2630D01*
X2532Y2629D02*
X2579Y2629D01*
X3542Y2629D02*
X3559Y2629D01*
X3577Y2629D02*
X3594Y2629D01*
X2532Y2628D02*
X2578Y2628D01*
X3543Y2628D02*
X3561Y2628D01*
X3574Y2628D02*
X3593Y2628D01*
X2533Y2627D02*
X2577Y2627D01*
X3544Y2627D02*
X3567Y2627D01*
X3569Y2627D02*
X3592Y2627D01*
X2534Y2626D02*
X2576Y2626D01*
X3544Y2626D02*
X3591Y2626D01*
X2535Y2625D02*
X2575Y2625D01*
X3545Y2625D02*
X3591Y2625D01*
X2537Y2624D02*
X2574Y2624D01*
X3546Y2624D02*
X3590Y2624D01*
X2538Y2623D02*
X2573Y2623D01*
X3547Y2623D02*
X3589Y2623D01*
X2539Y2622D02*
X2571Y2622D01*
X3548Y2622D02*
X3588Y2622D01*
X2541Y2621D02*
X2570Y2621D01*
X3549Y2621D02*
X3586Y2621D01*
X2543Y2620D02*
X2568Y2620D01*
X3551Y2620D02*
X3585Y2620D01*
X2546Y2619D02*
X2565Y2619D01*
X3552Y2619D02*
X3583Y2619D01*
X2549Y2618D02*
X2561Y2618D01*
X3554Y2618D02*
X3582Y2618D01*
X3556Y2617D02*
X3580Y2617D01*
X3559Y2616D02*
X3577Y2616D01*
X3563Y2615D02*
X3573Y2615D01*
X2553Y2579D02*
X2558Y2579D01*
X2547Y2578D02*
X2563Y2578D01*
X2544Y2577D02*
X2566Y2577D01*
X2542Y2576D02*
X2568Y2576D01*
X3564Y2576D02*
X3572Y2576D01*
X2540Y2575D02*
X2570Y2575D01*
X3559Y2575D02*
X3577Y2575D01*
X2539Y2574D02*
X2572Y2574D01*
X3556Y2574D02*
X3579Y2574D01*
X2537Y2573D02*
X2573Y2573D01*
X3554Y2573D02*
X3581Y2573D01*
X2536Y2572D02*
X2575Y2572D01*
X3552Y2572D02*
X3583Y2572D01*
X2535Y2571D02*
X2576Y2571D01*
X3551Y2571D02*
X3585Y2571D01*
X2534Y2570D02*
X2577Y2570D01*
X3550Y2570D02*
X3586Y2570D01*
X2533Y2569D02*
X2578Y2569D01*
X3548Y2569D02*
X3587Y2569D01*
X2532Y2568D02*
X2579Y2568D01*
X3547Y2568D02*
X3588Y2568D01*
X2531Y2567D02*
X2579Y2567D01*
X3546Y2567D02*
X3590Y2567D01*
X2531Y2566D02*
X2550Y2566D01*
X2561Y2566D02*
X2580Y2566D01*
X3545Y2566D02*
X3590Y2566D01*
X2530Y2565D02*
X2547Y2565D01*
X2564Y2565D02*
X2581Y2565D01*
X3544Y2565D02*
X3591Y2565D01*
X2529Y2564D02*
X2545Y2564D01*
X2565Y2564D02*
X2581Y2564D01*
X3544Y2564D02*
X3592Y2564D01*
X2529Y2563D02*
X2544Y2563D01*
X2567Y2563D02*
X2582Y2563D01*
X3543Y2563D02*
X3562Y2563D01*
X3574Y2563D02*
X3593Y2563D01*
X2528Y2562D02*
X2543Y2562D01*
X2568Y2562D02*
X2583Y2562D01*
X3542Y2562D02*
X3559Y2562D01*
X3576Y2562D02*
X3593Y2562D01*
X2528Y2561D02*
X2542Y2561D01*
X2569Y2561D02*
X2583Y2561D01*
X3542Y2561D02*
X3557Y2561D01*
X3578Y2561D02*
X3594Y2561D01*
X2527Y2560D02*
X2541Y2560D01*
X2570Y2560D02*
X2583Y2560D01*
X3541Y2560D02*
X3556Y2560D01*
X3580Y2560D02*
X3595Y2560D01*
X2527Y2559D02*
X2540Y2559D01*
X2571Y2559D02*
X2584Y2559D01*
X3541Y2559D02*
X3555Y2559D01*
X3581Y2559D02*
X3595Y2559D01*
X2527Y2558D02*
X2539Y2558D01*
X2572Y2558D02*
X2584Y2558D01*
X3540Y2558D02*
X3554Y2558D01*
X3582Y2558D02*
X3596Y2558D01*
X2526Y2557D02*
X2539Y2557D01*
X2572Y2557D02*
X2585Y2557D01*
X3540Y2557D02*
X3553Y2557D01*
X3583Y2557D02*
X3596Y2557D01*
X2526Y2556D02*
X2538Y2556D01*
X2573Y2556D02*
X2585Y2556D01*
X3539Y2556D02*
X3552Y2556D01*
X3583Y2556D02*
X3596Y2556D01*
X2526Y2555D02*
X2538Y2555D01*
X2573Y2555D02*
X2585Y2555D01*
X3539Y2555D02*
X3552Y2555D01*
X3584Y2555D02*
X3597Y2555D01*
X2525Y2554D02*
X2537Y2554D01*
X2573Y2554D02*
X2585Y2554D01*
X3539Y2554D02*
X3551Y2554D01*
X3585Y2554D02*
X3597Y2554D01*
X2525Y2553D02*
X2537Y2553D01*
X2574Y2553D02*
X2585Y2553D01*
X3538Y2553D02*
X3550Y2553D01*
X3585Y2553D02*
X3597Y2553D01*
X2525Y2552D02*
X2537Y2552D01*
X2574Y2552D02*
X2586Y2552D01*
X3538Y2552D02*
X3550Y2552D01*
X3586Y2552D02*
X3598Y2552D01*
X2525Y2551D02*
X2537Y2551D01*
X2574Y2551D02*
X2586Y2551D01*
X3538Y2551D02*
X3550Y2551D01*
X3586Y2551D02*
X3598Y2551D01*
X2525Y2550D02*
X2537Y2550D01*
X2574Y2550D02*
X2586Y2550D01*
X3538Y2550D02*
X3549Y2550D01*
X3586Y2550D02*
X3598Y2550D01*
X2525Y2549D02*
X2536Y2549D01*
X2574Y2549D02*
X2586Y2549D01*
X3538Y2549D02*
X3549Y2549D01*
X3586Y2549D02*
X3598Y2549D01*
X2525Y2548D02*
X2536Y2548D01*
X2574Y2548D02*
X2586Y2548D01*
X3537Y2548D02*
X3549Y2548D01*
X3587Y2548D02*
X3598Y2548D01*
X2525Y2547D02*
X2536Y2547D01*
X2574Y2547D02*
X2586Y2547D01*
X3537Y2547D02*
X3549Y2547D01*
X3587Y2547D02*
X3598Y2547D01*
X2525Y2546D02*
X2537Y2546D01*
X2574Y2546D02*
X2586Y2546D01*
X3537Y2546D02*
X3549Y2546D01*
X3587Y2546D02*
X3598Y2546D01*
X2525Y2545D02*
X2537Y2545D01*
X2574Y2545D02*
X2586Y2545D01*
X3537Y2545D02*
X3549Y2545D01*
X3587Y2545D02*
X3598Y2545D01*
X2525Y2544D02*
X2537Y2544D01*
X2574Y2544D02*
X2585Y2544D01*
X3537Y2544D02*
X3549Y2544D01*
X3587Y2544D02*
X3598Y2544D01*
X2525Y2543D02*
X2537Y2543D01*
X2574Y2543D02*
X2585Y2543D01*
X3537Y2543D02*
X3549Y2543D01*
X3587Y2543D02*
X3598Y2543D01*
X2526Y2542D02*
X2537Y2542D01*
X2573Y2542D02*
X2585Y2542D01*
X3538Y2542D02*
X3549Y2542D01*
X3586Y2542D02*
X3598Y2542D01*
X2526Y2541D02*
X2538Y2541D01*
X2573Y2541D02*
X2585Y2541D01*
X3538Y2541D02*
X3549Y2541D01*
X3586Y2541D02*
X3598Y2541D01*
X2526Y2540D02*
X2538Y2540D01*
X2572Y2540D02*
X2585Y2540D01*
X3538Y2540D02*
X3550Y2540D01*
X3586Y2540D02*
X3598Y2540D01*
X2526Y2539D02*
X2539Y2539D01*
X2572Y2539D02*
X2584Y2539D01*
X3538Y2539D02*
X3550Y2539D01*
X3586Y2539D02*
X3598Y2539D01*
X2527Y2538D02*
X2539Y2538D01*
X2571Y2538D02*
X2584Y2538D01*
X3538Y2538D02*
X3550Y2538D01*
X3585Y2538D02*
X3597Y2538D01*
X2527Y2537D02*
X2540Y2537D01*
X2570Y2537D02*
X2584Y2537D01*
X3539Y2537D02*
X3551Y2537D01*
X3585Y2537D02*
X3597Y2537D01*
X2527Y2536D02*
X2541Y2536D01*
X2570Y2536D02*
X2583Y2536D01*
X3539Y2536D02*
X3551Y2536D01*
X3584Y2536D02*
X3597Y2536D01*
X2528Y2535D02*
X2542Y2535D01*
X2569Y2535D02*
X2583Y2535D01*
X3539Y2535D02*
X3552Y2535D01*
X3584Y2535D02*
X3596Y2535D01*
X2528Y2534D02*
X2543Y2534D01*
X2568Y2534D02*
X2582Y2534D01*
X3540Y2534D02*
X3553Y2534D01*
X3583Y2534D02*
X3596Y2534D01*
X2529Y2533D02*
X2544Y2533D01*
X2566Y2533D02*
X2582Y2533D01*
X3540Y2533D02*
X3554Y2533D01*
X3582Y2533D02*
X3596Y2533D01*
X2530Y2532D02*
X2546Y2532D01*
X2565Y2532D02*
X2581Y2532D01*
X3540Y2532D02*
X3555Y2532D01*
X3581Y2532D02*
X3595Y2532D01*
X2530Y2531D02*
X2548Y2531D01*
X2563Y2531D02*
X2581Y2531D01*
X3541Y2531D02*
X3556Y2531D01*
X3580Y2531D02*
X3595Y2531D01*
X2531Y2530D02*
X2552Y2530D01*
X2559Y2530D02*
X2580Y2530D01*
X3542Y2530D02*
X3557Y2530D01*
X3578Y2530D02*
X3594Y2530D01*
X2532Y2529D02*
X2579Y2529D01*
X3542Y2529D02*
X3559Y2529D01*
X3577Y2529D02*
X3594Y2529D01*
X2532Y2528D02*
X2578Y2528D01*
X3543Y2528D02*
X3561Y2528D01*
X3574Y2528D02*
X3593Y2528D01*
X2533Y2527D02*
X2577Y2527D01*
X3544Y2527D02*
X3567Y2527D01*
X3569Y2527D02*
X3592Y2527D01*
X2534Y2526D02*
X2576Y2526D01*
X3544Y2526D02*
X3591Y2526D01*
X2535Y2525D02*
X2575Y2525D01*
X3545Y2525D02*
X3591Y2525D01*
X2537Y2524D02*
X2574Y2524D01*
X3546Y2524D02*
X3590Y2524D01*
X2538Y2523D02*
X2573Y2523D01*
X3547Y2523D02*
X3589Y2523D01*
X2539Y2522D02*
X2571Y2522D01*
X3548Y2522D02*
X3587Y2522D01*
X2541Y2521D02*
X2570Y2521D01*
X3549Y2521D02*
X3586Y2521D01*
X2543Y2520D02*
X2568Y2520D01*
X3551Y2520D02*
X3585Y2520D01*
X2546Y2519D02*
X2565Y2519D01*
X3552Y2519D02*
X3583Y2519D01*
X2549Y2518D02*
X2562Y2518D01*
X3554Y2518D02*
X3582Y2518D01*
X3556Y2517D02*
X3580Y2517D01*
X3559Y2516D02*
X3577Y2516D01*
X3563Y2515D02*
X3573Y2515D01*
X2527Y2478D02*
X2584Y2478D01*
X2526Y2477D02*
X2585Y2477D01*
X2526Y2476D02*
X2585Y2476D01*
X3563Y2476D02*
X3572Y2476D01*
X2526Y2475D02*
X2585Y2475D01*
X3559Y2475D02*
X3577Y2475D01*
X2526Y2474D02*
X2585Y2474D01*
X3556Y2474D02*
X3579Y2474D01*
X2526Y2473D02*
X2585Y2473D01*
X3554Y2473D02*
X3581Y2473D01*
X2526Y2472D02*
X2585Y2472D01*
X3552Y2472D02*
X3583Y2472D01*
X2526Y2471D02*
X2585Y2471D01*
X3551Y2471D02*
X3585Y2471D01*
X2526Y2470D02*
X2585Y2470D01*
X3550Y2470D02*
X3586Y2470D01*
X2526Y2469D02*
X2585Y2469D01*
X3548Y2469D02*
X3587Y2469D01*
X2526Y2468D02*
X2585Y2468D01*
X3547Y2468D02*
X3589Y2468D01*
X2526Y2467D02*
X2585Y2467D01*
X3546Y2467D02*
X3590Y2467D01*
X2526Y2466D02*
X2550Y2466D01*
X2561Y2466D02*
X2585Y2466D01*
X3545Y2466D02*
X3590Y2466D01*
X2526Y2465D02*
X2547Y2465D01*
X2564Y2465D02*
X2585Y2465D01*
X3544Y2465D02*
X3591Y2465D01*
X2526Y2464D02*
X2545Y2464D01*
X2565Y2464D02*
X2585Y2464D01*
X3544Y2464D02*
X3592Y2464D01*
X2526Y2463D02*
X2544Y2463D01*
X2567Y2463D02*
X2585Y2463D01*
X3543Y2463D02*
X3562Y2463D01*
X3574Y2463D02*
X3593Y2463D01*
X2526Y2462D02*
X2543Y2462D01*
X2568Y2462D02*
X2585Y2462D01*
X3542Y2462D02*
X3559Y2462D01*
X3576Y2462D02*
X3593Y2462D01*
X2526Y2461D02*
X2542Y2461D01*
X2569Y2461D02*
X2585Y2461D01*
X3542Y2461D02*
X3557Y2461D01*
X3578Y2461D02*
X3594Y2461D01*
X2526Y2460D02*
X2541Y2460D01*
X2570Y2460D02*
X2585Y2460D01*
X3541Y2460D02*
X3556Y2460D01*
X3580Y2460D02*
X3595Y2460D01*
X2526Y2459D02*
X2540Y2459D01*
X2571Y2459D02*
X2585Y2459D01*
X3541Y2459D02*
X3555Y2459D01*
X3581Y2459D02*
X3595Y2459D01*
X2526Y2458D02*
X2539Y2458D01*
X2572Y2458D02*
X2585Y2458D01*
X3540Y2458D02*
X3554Y2458D01*
X3582Y2458D02*
X3596Y2458D01*
X2526Y2457D02*
X2539Y2457D01*
X2572Y2457D02*
X2585Y2457D01*
X3540Y2457D02*
X3553Y2457D01*
X3583Y2457D02*
X3596Y2457D01*
X2526Y2456D02*
X2538Y2456D01*
X2573Y2456D02*
X2585Y2456D01*
X3539Y2456D02*
X3552Y2456D01*
X3583Y2456D02*
X3596Y2456D01*
X2526Y2455D02*
X2538Y2455D01*
X2573Y2455D02*
X2585Y2455D01*
X3539Y2455D02*
X3552Y2455D01*
X3584Y2455D02*
X3597Y2455D01*
X2526Y2454D02*
X2537Y2454D01*
X2573Y2454D02*
X2585Y2454D01*
X3539Y2454D02*
X3551Y2454D01*
X3585Y2454D02*
X3597Y2454D01*
X2526Y2453D02*
X2537Y2453D01*
X2574Y2453D02*
X2585Y2453D01*
X3538Y2453D02*
X3550Y2453D01*
X3585Y2453D02*
X3597Y2453D01*
X2526Y2452D02*
X2537Y2452D01*
X2574Y2452D02*
X2585Y2452D01*
X3538Y2452D02*
X3550Y2452D01*
X3586Y2452D02*
X3598Y2452D01*
X2526Y2451D02*
X2537Y2451D01*
X2574Y2451D02*
X2585Y2451D01*
X3538Y2451D02*
X3550Y2451D01*
X3586Y2451D02*
X3598Y2451D01*
X2526Y2450D02*
X2537Y2450D01*
X2574Y2450D02*
X2585Y2450D01*
X3538Y2450D02*
X3549Y2450D01*
X3586Y2450D02*
X3598Y2450D01*
X2526Y2449D02*
X2536Y2449D01*
X2574Y2449D02*
X2585Y2449D01*
X3538Y2449D02*
X3549Y2449D01*
X3586Y2449D02*
X3598Y2449D01*
X2526Y2448D02*
X2536Y2448D01*
X2574Y2448D02*
X2585Y2448D01*
X3537Y2448D02*
X3549Y2448D01*
X3587Y2448D02*
X3598Y2448D01*
X2526Y2447D02*
X2536Y2447D01*
X2574Y2447D02*
X2585Y2447D01*
X3537Y2447D02*
X3549Y2447D01*
X3587Y2447D02*
X3598Y2447D01*
X2526Y2446D02*
X2537Y2446D01*
X2574Y2446D02*
X2585Y2446D01*
X3537Y2446D02*
X3549Y2446D01*
X3587Y2446D02*
X3598Y2446D01*
X2526Y2445D02*
X2537Y2445D01*
X2574Y2445D02*
X2585Y2445D01*
X3537Y2445D02*
X3549Y2445D01*
X3587Y2445D02*
X3598Y2445D01*
X2526Y2444D02*
X2537Y2444D01*
X2574Y2444D02*
X2585Y2444D01*
X3537Y2444D02*
X3549Y2444D01*
X3587Y2444D02*
X3598Y2444D01*
X2526Y2443D02*
X2537Y2443D01*
X2574Y2443D02*
X2585Y2443D01*
X3537Y2443D02*
X3549Y2443D01*
X3587Y2443D02*
X3598Y2443D01*
X2526Y2442D02*
X2537Y2442D01*
X2573Y2442D02*
X2585Y2442D01*
X3538Y2442D02*
X3549Y2442D01*
X3586Y2442D02*
X3598Y2442D01*
X2526Y2441D02*
X2538Y2441D01*
X2573Y2441D02*
X2585Y2441D01*
X3538Y2441D02*
X3549Y2441D01*
X3586Y2441D02*
X3598Y2441D01*
X2526Y2440D02*
X2538Y2440D01*
X2572Y2440D02*
X2585Y2440D01*
X3538Y2440D02*
X3550Y2440D01*
X3586Y2440D02*
X3598Y2440D01*
X2526Y2439D02*
X2539Y2439D01*
X2572Y2439D02*
X2585Y2439D01*
X3538Y2439D02*
X3550Y2439D01*
X3586Y2439D02*
X3598Y2439D01*
X2526Y2438D02*
X2539Y2438D01*
X2571Y2438D02*
X2585Y2438D01*
X3538Y2438D02*
X3550Y2438D01*
X3585Y2438D02*
X3597Y2438D01*
X2526Y2437D02*
X2540Y2437D01*
X2570Y2437D02*
X2585Y2437D01*
X3539Y2437D02*
X3551Y2437D01*
X3585Y2437D02*
X3597Y2437D01*
X2526Y2436D02*
X2541Y2436D01*
X2570Y2436D02*
X2585Y2436D01*
X3539Y2436D02*
X3551Y2436D01*
X3584Y2436D02*
X3597Y2436D01*
X2526Y2435D02*
X2542Y2435D01*
X2569Y2435D02*
X2585Y2435D01*
X3539Y2435D02*
X3552Y2435D01*
X3584Y2435D02*
X3596Y2435D01*
X2526Y2434D02*
X2543Y2434D01*
X2568Y2434D02*
X2585Y2434D01*
X3540Y2434D02*
X3553Y2434D01*
X3583Y2434D02*
X3596Y2434D01*
X2526Y2433D02*
X2544Y2433D01*
X2566Y2433D02*
X2585Y2433D01*
X3540Y2433D02*
X3554Y2433D01*
X3582Y2433D02*
X3596Y2433D01*
X2526Y2432D02*
X2546Y2432D01*
X2565Y2432D02*
X2585Y2432D01*
X3540Y2432D02*
X3555Y2432D01*
X3581Y2432D02*
X3595Y2432D01*
X2526Y2431D02*
X2548Y2431D01*
X2563Y2431D02*
X2585Y2431D01*
X3541Y2431D02*
X3556Y2431D01*
X3580Y2431D02*
X3595Y2431D01*
X2526Y2430D02*
X2552Y2430D01*
X2559Y2430D02*
X2585Y2430D01*
X3542Y2430D02*
X3557Y2430D01*
X3578Y2430D02*
X3594Y2430D01*
X2526Y2429D02*
X2585Y2429D01*
X3542Y2429D02*
X3559Y2429D01*
X3577Y2429D02*
X3594Y2429D01*
X2526Y2428D02*
X2585Y2428D01*
X3543Y2428D02*
X3561Y2428D01*
X3574Y2428D02*
X3593Y2428D01*
X2526Y2427D02*
X2585Y2427D01*
X3544Y2427D02*
X3567Y2427D01*
X3569Y2427D02*
X3592Y2427D01*
X2526Y2426D02*
X2585Y2426D01*
X3544Y2426D02*
X3591Y2426D01*
X2526Y2425D02*
X2585Y2425D01*
X3545Y2425D02*
X3591Y2425D01*
X2526Y2424D02*
X2585Y2424D01*
X3546Y2424D02*
X3590Y2424D01*
X2526Y2423D02*
X2585Y2423D01*
X3547Y2423D02*
X3589Y2423D01*
X2526Y2422D02*
X2585Y2422D01*
X3548Y2422D02*
X3587Y2422D01*
X2526Y2421D02*
X2585Y2421D01*
X3549Y2421D02*
X3586Y2421D01*
X2526Y2420D02*
X2585Y2420D01*
X3551Y2420D02*
X3585Y2420D01*
X2526Y2419D02*
X2585Y2419D01*
X3552Y2419D02*
X3583Y2419D01*
X3554Y2418D02*
X3582Y2418D01*
X3556Y2417D02*
X3579Y2417D01*
X3559Y2416D02*
X3577Y2416D01*
X3563Y2415D02*
X3573Y2415D01*
X3539Y2375D02*
X3597Y2375D01*
X3539Y2374D02*
X3597Y2374D01*
X3539Y2373D02*
X3597Y2373D01*
X3539Y2372D02*
X3597Y2372D01*
X3539Y2371D02*
X3597Y2371D01*
X3539Y2370D02*
X3597Y2370D01*
X3539Y2369D02*
X3597Y2369D01*
X3539Y2368D02*
X3597Y2368D01*
X3539Y2367D02*
X3597Y2367D01*
X3539Y2366D02*
X3597Y2366D01*
X3539Y2365D02*
X3597Y2365D01*
X3539Y2364D02*
X3597Y2364D01*
X3539Y2363D02*
X3562Y2363D01*
X3574Y2363D02*
X3597Y2363D01*
X3539Y2362D02*
X3559Y2362D01*
X3576Y2362D02*
X3597Y2362D01*
X3539Y2361D02*
X3557Y2361D01*
X3578Y2361D02*
X3597Y2361D01*
X3539Y2360D02*
X3556Y2360D01*
X3580Y2360D02*
X3597Y2360D01*
X3539Y2359D02*
X3555Y2359D01*
X3581Y2359D02*
X3597Y2359D01*
X3539Y2358D02*
X3554Y2358D01*
X3582Y2358D02*
X3597Y2358D01*
X3539Y2357D02*
X3553Y2357D01*
X3583Y2357D02*
X3597Y2357D01*
X3539Y2356D02*
X3552Y2356D01*
X3584Y2356D02*
X3597Y2356D01*
X3539Y2355D02*
X3552Y2355D01*
X3584Y2355D02*
X3597Y2355D01*
X3539Y2354D02*
X3551Y2354D01*
X3585Y2354D02*
X3597Y2354D01*
X3539Y2353D02*
X3550Y2353D01*
X3585Y2353D02*
X3597Y2353D01*
X3539Y2352D02*
X3550Y2352D01*
X3586Y2352D02*
X3597Y2352D01*
X3539Y2351D02*
X3550Y2351D01*
X3586Y2351D02*
X3597Y2351D01*
X3539Y2350D02*
X3549Y2350D01*
X3586Y2350D02*
X3597Y2350D01*
X3539Y2349D02*
X3549Y2349D01*
X3586Y2349D02*
X3597Y2349D01*
X3539Y2348D02*
X3549Y2348D01*
X3587Y2348D02*
X3597Y2348D01*
X3539Y2347D02*
X3549Y2347D01*
X3587Y2347D02*
X3597Y2347D01*
X3539Y2346D02*
X3549Y2346D01*
X3587Y2346D02*
X3597Y2346D01*
X3539Y2345D02*
X3549Y2345D01*
X3587Y2345D02*
X3597Y2345D01*
X3539Y2344D02*
X3549Y2344D01*
X3587Y2344D02*
X3597Y2344D01*
X3539Y2343D02*
X3549Y2343D01*
X3587Y2343D02*
X3597Y2343D01*
X3539Y2342D02*
X3549Y2342D01*
X3586Y2342D02*
X3597Y2342D01*
X3539Y2341D02*
X3549Y2341D01*
X3586Y2341D02*
X3597Y2341D01*
X3539Y2340D02*
X3550Y2340D01*
X3586Y2340D02*
X3597Y2340D01*
X3539Y2339D02*
X3550Y2339D01*
X3586Y2339D02*
X3597Y2339D01*
X3539Y2338D02*
X3550Y2338D01*
X3585Y2338D02*
X3597Y2338D01*
X3539Y2337D02*
X3551Y2337D01*
X3585Y2337D02*
X3597Y2337D01*
X3539Y2336D02*
X3551Y2336D01*
X3584Y2336D02*
X3597Y2336D01*
X3539Y2335D02*
X3552Y2335D01*
X3584Y2335D02*
X3597Y2335D01*
X3539Y2334D02*
X3553Y2334D01*
X3583Y2334D02*
X3597Y2334D01*
X3539Y2333D02*
X3554Y2333D01*
X3582Y2333D02*
X3597Y2333D01*
X3539Y2332D02*
X3555Y2332D01*
X3581Y2332D02*
X3597Y2332D01*
X3539Y2331D02*
X3556Y2331D01*
X3580Y2331D02*
X3597Y2331D01*
X3539Y2330D02*
X3557Y2330D01*
X3578Y2330D02*
X3597Y2330D01*
X3539Y2329D02*
X3559Y2329D01*
X3577Y2329D02*
X3597Y2329D01*
X3539Y2328D02*
X3561Y2328D01*
X3574Y2328D02*
X3597Y2328D01*
X3539Y2327D02*
X3567Y2327D01*
X3569Y2327D02*
X3597Y2327D01*
X3539Y2326D02*
X3597Y2326D01*
X3539Y2325D02*
X3597Y2325D01*
X3539Y2324D02*
X3597Y2324D01*
X3539Y2323D02*
X3597Y2323D01*
X3539Y2322D02*
X3597Y2322D01*
X3539Y2321D02*
X3597Y2321D01*
X3539Y2320D02*
X3597Y2320D01*
X3539Y2319D02*
X3597Y2319D01*
X3539Y2318D02*
X3597Y2318D01*
X3539Y2317D02*
X3597Y2317D01*
X3539Y2316D02*
X3597Y2316D01*
D02*
G04 End of Copper1*
M02*